<svg width="16" height="21" viewBox="0 0 16 21" fill="none" xmlns="http://www.w3.org/2000/svg">
<path d="M5.1875 3.3125C5.1875 4.875 6.4375 6.125 8 6.125C9.52344 6.125 10.8125 4.875 10.8125 3.3125C10.8125 1.78906 9.52344 0.5 8 0.5C6.4375 0.5 5.1875 1.78906 5.1875 3.3125ZM15.1094 3.39062C14.6406 2.88281 13.8203 2.88281 13.3516 3.39062L9.95312 6.75H6.00781L2.60938 3.39062C2.14062 2.88281 1.32031 2.88281 0.851562 3.39062C0.34375 3.85938 0.34375 4.67969 0.851562 5.14844L4.5625 8.85938V19.25C4.5625 19.9531 5.10938 20.5 5.8125 20.5H6.4375C7.10156 20.5 7.6875 19.9531 7.6875 19.25V14.875H8.3125V19.25C8.3125 19.9531 8.85938 20.5 9.5625 20.5H10.1875C10.8516 20.5 11.4375 19.9531 11.4375 19.25V8.85938L15.1094 5.14844C15.6172 4.67969 15.6172 3.85938 15.1094 3.39062Z" fill="black"/>
</svg>
