<svg width="17" height="12" viewBox="0 0 17 12" fill="none" xmlns="http://www.w3.org/2000/svg">
<path fill-rule="evenodd" clip-rule="evenodd" d="M8.60888 11.4871C6.25153 11.4871 3.89418 11.4871 1.53683 11.4871C0.906251 11.4871 0.482056 11.06 0.482056 10.4266C0.482056 8.29349 0.482056 6.16038 0.482056 4.02656C0.482056 3.4831 0.519905 3.45882 0.992661 3.71163C3.2029 4.8928 5.416 6.06897 7.62195 7.25872C8.2861 7.6165 8.92453 7.61792 9.58796 7.26014C11.7868 6.07612 13.992 4.90351 16.1944 3.72662C16.2658 3.68877 16.3351 3.64735 16.4086 3.61522C16.6414 3.51167 16.73 3.56023 16.73 3.80803C16.7321 6.06683 16.7343 8.32563 16.7286 10.5844C16.7271 11.0536 16.2358 11.4871 15.7345 11.4878C13.3593 11.4878 10.9841 11.4871 8.60888 11.4871Z" fill="#FEFEFE"/>
<path fill-rule="evenodd" clip-rule="evenodd" d="M8.60486 0.780247C11.115 0.780247 13.6245 0.779533 16.1347 0.780962C16.3368 0.780962 16.5796 0.738114 16.6731 0.978062C16.7667 1.21872 16.606 1.40368 16.456 1.57508C16.3539 1.69148 16.2239 1.77003 16.0897 1.84359C13.908 3.04119 11.727 4.24021 9.54466 5.4371C8.92265 5.77774 8.29493 5.77988 7.67364 5.43924C5.49125 4.24235 3.31029 3.04261 1.12791 1.84644C0.885819 1.71362 0.678721 1.54794 0.563032 1.29228C0.435916 1.0102 0.552319 0.815954 0.86011 0.783818C0.948662 0.774534 1.03936 0.778819 1.12862 0.778819C3.62094 0.780248 6.11326 0.780247 8.60486 0.780247Z" fill="#FEFEFE"/>
</svg>
