<svg width="20" height="20" viewBox="0 0 20 20" fill="none" xmlns="http://www.w3.org/2000/svg">
<path d="M11.3281 7C10.5469 7 7.14844 7.07812 5 10.3594V7C5 4.96875 3.28125 3.25 1.25 3.25C0.546875 3.25 0 3.83594 0 4.5C0 5.20312 0.546875 5.75 1.25 5.75C1.91406 5.75 2.5 6.33594 2.5 7V17C2.5 18.4062 3.59375 19.5 5 19.5H11.875C12.1875 19.5 12.5 19.2266 12.5 18.875V18.25C12.5 17.5859 11.9141 17 11.25 17H10L15 13.25V18.875C15 19.2266 15.2734 19.5 15.625 19.5H16.875C17.1875 19.5 17.5 19.2266 17.5 18.875V10.8281C17.0703 10.9453 16.6797 11.0234 16.25 11.0234C13.8281 11.0234 11.7969 9.30469 11.3281 7ZM17.5 3.25H15L12.5 0.75V6.02344C12.5 8.09375 14.1406 9.77344 16.25 9.77344C18.3203 9.77344 20 8.09375 20 6.02344V0.75L17.5 3.25ZM14.6875 6.375C14.3359 6.375 14.0625 6.10156 14.0625 5.75C14.0625 5.4375 14.3359 5.125 14.6875 5.125C15 5.125 15.3125 5.4375 15.3125 5.75C15.3125 6.10156 15 6.375 14.6875 6.375ZM17.8125 6.375C17.4609 6.375 17.1875 6.10156 17.1875 5.75C17.1875 5.4375 17.4609 5.125 17.8125 5.125C18.125 5.125 18.4375 5.4375 18.4375 5.75C18.4375 6.10156 18.125 6.375 17.8125 6.375Z" fill="black"/>
</svg>
