<svg width="15" height="23" viewBox="0 0 15 23" fill="none" xmlns="http://www.w3.org/2000/svg">
<path d="M0 8.49885C0 8.56584 0 8.62167 0 8.67526C0 12.9157 0 17.1585 0 21.3989C0 22.3547 0.661346 23 1.63512 23C5.22235 23 8.80958 23 12.3968 22.9978C12.52 22.9978 12.6454 22.9888 12.7662 22.9643C13.512 22.808 13.9977 22.1984 13.9977 21.4257C13.9977 17.1741 13.9977 12.9224 13.9977 8.67079C13.9977 8.61497 13.9977 8.56138 13.9977 8.49438C9.32041 8.49885 4.66819 8.49885 0 8.49885ZM2.5268 15.7651C2.5268 16.0442 2.36488 16.2675 2.11631 16.3501C1.87913 16.4305 1.61688 16.359 1.45496 16.1737C1.34094 16.042 1.30901 15.8901 1.31129 15.7226C1.31357 14.9522 1.31129 14.1841 1.31129 13.4137C1.31129 12.6299 1.30901 11.8439 1.31129 11.0601C1.31357 10.7051 1.54162 10.4505 1.87001 10.4304C2.24629 10.4081 2.52452 10.6716 2.5268 11.0579C2.52908 11.9935 2.5268 12.9314 2.5268 13.867C2.52908 14.5012 2.52908 15.1331 2.5268 15.7651Z" fill="black"/>
<path d="M14 7.87136C14 5.75447 14.0046 3.63981 13.9977 1.52291C13.9954 0.654272 13.309 0 12.4082 0C8.80502 0 5.20183 0 1.59863 0C0.677309 0 0.0022805 0.658738 0 1.56311C0 3.6532 0 5.7433 0 7.8334C0 7.88699 0 7.94282 0 8.00087C4.67047 8.00087 9.32269 8.00087 13.9909 8.00087C13.9954 7.94952 14 7.90932 14 7.87136ZM2.5268 5.85049C2.5268 6.14971 2.33523 6.38864 2.05701 6.45117C1.77879 6.51369 1.48917 6.38194 1.37514 6.12738C1.33409 6.03359 1.31585 5.92194 1.31585 5.81922C1.30901 5.36369 1.31357 4.90816 1.31357 4.45485C1.31357 4.00379 1.31129 3.55495 1.31357 3.10388C1.31585 2.72427 1.56899 2.45631 1.92018 2.45631C2.27138 2.45631 2.52908 2.72874 2.52908 3.10612C2.52908 4.01942 2.52908 4.93495 2.5268 5.85049Z" fill="black"/>
</svg>
