<svg width="26" height="21" viewBox="0 0 26 21" fill="none" xmlns="http://www.w3.org/2000/svg">
<path d="M25.2656 18.5859L14.0156 1.08594C13.8203 0.734375 13.3906 0.5 13 0.5C12.5703 0.5 12.1406 0.734375 11.9453 1.08594L0.695312 18.5859C0.539062 18.7812 0.5 19.0156 0.5 19.25C0.5 19.4844 0.539062 19.6797 0.617188 19.875C0.851562 20.2656 1.24219 20.5 1.75 20.5H24.25C24.6797 20.5 25.1094 20.2656 25.3438 19.875C25.4219 19.6797 25.4609 19.4844 25.4609 19.2891C25.4609 19.0156 25.4219 18.7812 25.2656 18.5859ZM13 4.09375L16.3203 9.25H13L10.5 11.75L8.97656 10.2656L13 4.09375Z" fill="black"/>
</svg>
