<svg width="18" height="21" viewBox="0 0 18 21" fill="none" xmlns="http://www.w3.org/2000/svg">
<path d="M17.4375 14.0156L16.1094 13.2344L17.125 12.9609C17.4375 12.8828 17.6328 12.5312 17.5547 12.2188L17.3984 11.6328C17.3203 11.3203 16.9688 11.125 16.6562 11.2031L13.8828 11.9453L11.3828 10.5L13.8828 9.09375L16.6562 9.83594C16.9688 9.91406 17.3203 9.71875 17.3984 9.40625L17.5547 8.82031C17.6328 8.50781 17.4375 8.15625 17.125 8.07812L16.1094 7.80469L17.4375 7.02344C17.7109 6.86719 17.8281 6.51562 17.6328 6.20312L17.0469 5.14844C16.8906 4.875 16.5 4.79688 16.2266 4.95312L14.8984 5.69531L15.1719 4.67969C15.25 4.36719 15.0547 4.05469 14.7422 3.9375L14.1562 3.78125C13.8438 3.70312 13.5312 3.89844 13.4141 4.21094L12.6719 6.98438L10.25 8.39062V5.38281L12.3203 3.27344C12.5547 3.03906 12.5547 2.64844 12.3203 2.375L11.8906 1.94531C11.6562 1.71094 11.2656 1.71094 10.9922 1.94531L10.25 2.72656V1.125C10.25 0.8125 9.9375 0.5 9.625 0.5H8.375C8.02344 0.5 7.75 0.8125 7.75 1.125V2.72656L6.96875 1.94531C6.73438 1.71094 6.30469 1.71094 6.07031 1.94531L5.64062 2.375C5.40625 2.64844 5.40625 3.03906 5.64062 3.27344L7.75 5.38281V8.39062L5.28906 6.98438L4.54688 4.21094C4.46875 3.89844 4.11719 3.70312 3.80469 3.78125L3.21875 3.9375C2.90625 4.05469 2.71094 4.36719 2.78906 4.67969L3.0625 5.69531L1.73438 4.95312C1.46094 4.75781 1.07031 4.875 0.914062 5.14844L0.328125 6.20312C0.132812 6.51562 0.25 6.86719 0.523438 7.02344L1.85156 7.80469L0.835938 8.07812C0.523438 8.15625 0.328125 8.46875 0.40625 8.82031L0.5625 9.40625C0.640625 9.71875 0.992188 9.91406 1.30469 9.83594L4.07812 9.09375L6.57812 10.5L4.07812 11.9453L1.30469 11.2031C0.992188 11.125 0.640625 11.3203 0.5625 11.6328L0.40625 12.2188C0.328125 12.5312 0.523438 12.8828 0.835938 12.9609L1.85156 13.2344L0.523438 14.0156C0.25 14.1719 0.132812 14.5234 0.328125 14.8359L0.914062 15.8906C1.07031 16.1641 1.46094 16.2422 1.73438 16.0859L3.0625 15.3438L2.78906 16.3594C2.71094 16.6719 2.90625 16.9844 3.21875 17.1016L3.80469 17.2578C4.11719 17.3359 4.42969 17.1406 4.54688 16.8281L5.28906 14.0547L7.71094 12.6484V15.6562L5.64062 17.7656C5.36719 18 5.36719 18.3906 5.64062 18.6641L6.07031 19.0938C6.30469 19.3281 6.69531 19.3281 6.96875 19.0938L7.71094 18.3125V19.875C7.71094 20.2266 8.02344 20.5 8.33594 20.5H9.58594C9.9375 20.5 10.2109 20.2266 10.2109 19.875V18.3125L10.9922 19.0938C11.2266 19.3281 11.6172 19.3281 11.8906 19.0938L12.3203 18.625C12.5547 18.3906 12.5547 18 12.3203 17.7656L10.25 15.6562V12.6484L12.6719 14.0547L13.4141 16.8281C13.5312 17.1406 13.8438 17.3359 14.1562 17.2578L14.7422 17.1016C15.0547 16.9844 15.25 16.6719 15.1719 16.3594L14.8984 15.3438L16.2266 16.0859C16.5 16.2422 16.8906 16.1641 17.0469 15.8516L17.6328 14.8359C17.8281 14.5234 17.7109 14.1719 17.4375 14.0156Z" fill="black"/>
</svg>
