<svg width="18" height="21" viewBox="0 0 18 21" fill="none" xmlns="http://www.w3.org/2000/svg">
<path d="M8.96094 1.125C8.84375 0.304688 7.20312 0.304688 7.08594 1.16406V6.67188C7.04688 6.78906 6.5 6.78906 6.46094 6.67188C6.42188 5.69531 6.1875 1.24219 6.14844 1.125C6.03125 0.304688 4.42969 0.304688 4.3125 1.125C4.27344 1.24219 4.03906 5.69531 4 6.67188C3.96094 6.78906 3.41406 6.78906 3.375 6.67188V1.16406C3.25781 0.304688 1.61719 0.304688 1.5 1.125C1.46094 1.28125 0.875 4.79688 0.875 6.125C0.875 8.19531 1.92969 9.64062 3.53125 10.2266L3.0625 19.5234C3.02344 20.0703 3.45312 20.5 4 20.5H6.5C7.00781 20.5 7.4375 20.0703 7.4375 19.5234L6.92969 10.2266C8.53125 9.64062 9.625 8.19531 9.625 6.125C9.625 4.79688 9 1.28125 8.96094 1.125ZM13.6484 12.2578L13.0625 19.4844C12.9844 20.0312 13.4531 20.5 14 20.5H16.1875C16.6953 20.5 17.125 20.1094 17.125 19.5625V1.4375C17.125 0.929688 16.6953 0.5 16.1875 0.5C12.9453 0.5 7.51562 7.49219 13.6484 12.2578Z" fill="black"/>
</svg>
