<svg width="70" height="13" viewBox="0 0 70 13" fill="none" xmlns="http://www.w3.org/2000/svg">
<path d="M13.468 5.266V5.21H8.568L7.028 0.505999H6.972L5.432 5.21H0.532V5.266L4.494 8.136L2.94 12.868L2.982 12.882L7 9.97L11.018 12.882L11.06 12.868L9.506 8.136L13.468 5.266ZM27.468 5.266V5.21H22.568L21.028 0.505999H20.972L19.432 5.21H14.532V5.266L18.494 8.136L16.94 12.868L16.982 12.882L21 9.97L25.018 12.882L25.06 12.868L23.506 8.136L27.468 5.266ZM41.468 5.266V5.21H36.568L35.028 0.505999H34.972L33.432 5.21H28.532V5.266L32.494 8.136L30.94 12.868L30.982 12.882L35 9.97L39.018 12.882L39.06 12.868L37.506 8.136L41.468 5.266ZM55.468 5.266V5.21H50.568L49.028 0.505999H48.972L47.432 5.21H42.532V5.266L46.494 8.136L44.94 12.868L44.982 12.882L49 9.97L53.018 12.882L53.06 12.868L51.506 8.136L55.468 5.266ZM69.468 5.266V5.21H64.568L63.028 0.505999H62.972L61.432 5.21H56.532V5.266L60.494 8.136L58.94 12.868L58.982 12.882L63 9.97L67.018 12.882L67.06 12.868L65.506 8.136L69.468 5.266Z" fill="#FFD600"/>
</svg>
