<svg width="17" height="17" viewBox="0 0 17 17" fill="none" xmlns="http://www.w3.org/2000/svg">
<path d="M8.52441 1.88971C10.6099 1.88971 10.857 1.89749 11.6807 1.93498C12.4423 1.96988 12.8557 2.09732 13.131 2.20402C13.4957 2.34582 13.7556 2.51514 14.029 2.78856C14.3024 3.06159 14.4718 3.32165 14.6134 3.68642C14.7203 3.96184 14.8477 4.37546 14.8822 5.13691C14.9199 5.96037 14.9277 6.20747 14.9277 8.29336C14.9277 10.3788 14.9199 10.6259 14.8822 11.4496C14.8475 12.2111 14.7201 12.6245 14.6134 12.9001C14.4718 13.2649 14.3024 13.5249 14.029 13.798C13.7556 14.0714 13.4957 14.2407 13.131 14.3825C12.8555 14.4894 12.4421 14.6164 11.6807 14.6515C10.857 14.6886 10.6101 14.6968 8.52441 14.6968C6.43872 14.6968 6.19162 14.6886 5.36796 14.6515C4.60632 14.6164 4.19289 14.4892 3.91767 14.3825C3.5531 14.2407 3.29304 14.0714 3.02001 13.798C2.74639 13.5249 2.57687 13.2649 2.43547 12.9001C2.32837 12.6245 2.20133 12.2111 2.16623 11.4496C2.12854 10.6261 2.12076 10.3788 2.12076 8.29336C2.12076 6.20747 2.12854 5.96037 2.16623 5.13691C2.20133 4.37546 2.32837 3.96184 2.43547 3.68642C2.57687 3.32165 2.74639 3.06159 3.02001 2.78856C3.29304 2.51514 3.5531 2.34602 3.91767 2.20402C4.19289 2.09712 4.60652 1.96988 5.36796 1.93498C6.19142 1.89749 6.43872 1.88971 8.52441 1.88971ZM8.52441 0.4823C6.40302 0.4823 6.13718 0.491075 5.30414 0.529167C4.4727 0.56706 3.90451 0.699285 3.40771 0.892338C2.89437 1.09157 2.4586 1.35882 2.02443 1.79338C1.59027 2.22755 1.32302 2.66312 1.12339 3.17686C0.930336 3.67365 0.79811 4.24145 0.760417 5.07269C0.721926 5.90593 0.712952 6.17197 0.712952 8.29336C0.712952 10.4145 0.721926 10.6804 0.760417 11.5136C0.797911 12.3449 0.930336 12.9127 1.12339 13.4095C1.32282 13.9232 1.59027 14.3588 2.02443 14.7929C2.4586 15.2273 2.89437 15.4945 3.40771 15.694C3.90451 15.887 4.4727 16.0189 5.30414 16.057C6.13718 16.0952 6.40302 16.104 8.52441 16.104C10.6458 16.104 10.9118 16.0952 11.7449 16.057C12.5761 16.0191 13.1439 15.887 13.6409 15.694C14.1545 15.4945 14.5902 15.2273 15.0246 14.7929C15.4588 14.3588 15.7258 13.9232 15.9252 13.4095C16.1187 12.9127 16.2505 12.3449 16.2884 11.5136C16.3265 10.6804 16.3355 10.4145 16.3355 8.29336C16.3355 6.17197 16.3265 5.90593 16.2884 5.07269C16.2505 4.24145 16.1187 3.67365 15.9252 3.17686C15.7258 2.66312 15.4588 2.22755 15.0246 1.79338C14.5904 1.35902 14.1547 1.09157 13.6409 0.892338C13.1439 0.699285 12.5761 0.567259 11.7449 0.529167C10.9116 0.491075 10.6456 0.4823 8.52441 0.4823Z" fill="white"/>
<path d="M8.52434 4.28247C6.30882 4.28247 4.51331 6.07778 4.51331 8.2933C4.51331 10.5086 6.30882 12.3041 8.52434 12.3041C10.7397 12.3041 12.5352 10.5086 12.5352 8.2933C12.535 6.07778 10.7395 4.28247 8.52434 4.28247ZM8.52434 10.8969C7.08641 10.8969 5.92032 9.73103 5.92032 8.2933C5.92032 6.85518 7.08621 5.68948 8.52434 5.68948C9.96226 5.68948 11.128 6.85518 11.128 8.2933C11.128 9.73103 9.96226 10.8969 8.52434 10.8969Z" fill="white"/>
<path d="M13.631 4.12378C13.631 4.64151 13.2114 5.06112 12.6937 5.06112C12.1762 5.06112 11.7563 4.64151 11.7563 4.12378C11.7563 3.60604 12.1762 3.18604 12.6937 3.18604C13.2112 3.18623 13.631 3.60604 13.631 4.12378Z" fill="white"/>
</svg>
