<svg width="12" height="21" viewBox="0 0 12 21" fill="none" xmlns="http://www.w3.org/2000/svg">
<path d="M8.8125 18.625H7.25V14.0547C9.90625 13.4297 11.8594 10.9297 11.5859 8.03906L10.9609 1.08594C10.9219 0.773438 10.6484 0.5 10.3359 0.5H1.625C1.3125 0.5 1.03906 0.773438 1 1.08594L0.375 8.03906C0.101562 10.9297 2.05469 13.4297 4.75 14.0547V18.625H3.1875C2.28906 18.625 1.625 19.3281 1.625 20.1875C1.625 20.3828 1.74219 20.5 1.9375 20.5H10.0625C10.2188 20.5 10.375 20.3828 10.375 20.1875C10.375 19.3281 9.67188 18.625 8.8125 18.625ZM2.75781 2.375H9.20312L9.47656 5.5H2.48438L2.75781 2.375Z" fill="black"/>
</svg>
