<svg width="24" height="24" viewBox="0 0 24 24" fill="none" xmlns="http://www.w3.org/2000/svg">
<path d="M4.5 14.25C4.5 14.6719 4.82812 15 5.25 15H10.7344L6.23438 10.5H5.25C4.82812 10.5 4.5 10.875 4.5 11.25V14.25ZM12 0C5.34375 0 0 5.39062 0 12C0 18.6562 5.34375 24 12 24C18.6094 24 24 18.6562 24 12C24 5.39062 18.6094 0 12 0ZM12 21C7.03125 21 3 16.9688 3 12C3 10.0781 3.60938 8.29688 4.64062 6.79688L17.2031 19.3594C15.7031 20.3906 13.9219 21 12 21ZM14.1094 12H18V13.5H15.6094L14.1094 12ZM19.3125 17.25L17.1094 15H18.75C19.125 15 19.5 14.6719 19.5 14.25V11.25C19.5 10.875 19.125 10.5 18.75 10.5H12.6094L6.75 4.6875C8.25 3.65625 10.0312 3 12 3C16.9219 3 21 7.07812 21 12C21 13.9688 20.3438 15.75 19.3125 17.25ZM15 6C14.2969 6 13.6875 5.48438 13.5469 4.82812C13.5 4.64062 13.3594 4.5 13.1719 4.5H12.4219C12.1875 4.5 12 4.73438 12.0469 4.96875C12.2344 6.42188 13.5 7.5 15 7.5C15.75 7.5 16.3594 8.0625 16.5 8.71875C16.5 8.90625 16.6875 9 16.8281 9H17.5781C17.8125 9 18 8.8125 17.9531 8.57812C17.7656 7.125 16.5 6 15 6Z" fill="black"/>
</svg>
