<svg width="26" height="15" viewBox="0 0 26 15" fill="none" xmlns="http://www.w3.org/2000/svg">
<path d="M6.75 6.25V8.75H19.25V6.25C19.25 4.88281 20.3438 3.75 21.75 3.75H23C23 1.67969 21.3203 0 19.25 0H6.75C4.67969 0 3 1.67969 3 3.75H4.25C5.61719 3.75 6.75 4.88281 6.75 6.25ZM23 5H21.75C21.0469 5 20.5 5.58594 20.5 6.25V10H5.5V6.25C5.5 5.58594 4.91406 5 4.25 5H3C1.59375 5 0.5 6.13281 0.5 7.5C0.5 8.4375 1.00781 9.21875 1.75 9.6875V14.375C1.75 14.7266 2.02344 15 2.375 15H4.875C5.1875 15 5.5 14.7266 5.5 14.375V13.75H20.5V14.375C20.5 14.7266 20.7734 15 21.125 15H23.625C23.9375 15 24.25 14.7266 24.25 14.375V9.6875C24.9922 9.21875 25.5 8.4375 25.5 7.5C25.5 6.13281 24.3672 5 23 5Z" fill="black"/>
</svg>
