<svg width="26" height="19" viewBox="0 0 26 19" fill="none" xmlns="http://www.w3.org/2000/svg">
<path d="M25.2656 5.55469C18.3516 -0.8125 7.60938 -0.8125 0.695312 5.55469C0.421875 5.82812 0.421875 6.21875 0.65625 6.45312L1.98438 7.78125C2.25781 8.01562 2.64844 8.05469 2.88281 7.82031C8.58594 2.58594 17.375 2.58594 23.0781 7.82031C23.3516 8.05469 23.7031 8.01562 23.9766 7.78125L25.3047 6.45312C25.5391 6.21875 25.5391 5.82812 25.2656 5.55469ZM13 13.25C11.5938 13.25 10.5 14.3828 10.5 15.75C10.5 17.1562 11.5938 18.25 13 18.25C14.3672 18.25 15.5 17.1562 15.5 15.75C15.5 14.3828 14.3672 13.25 13 13.25ZM20.8906 10.0078C16.3984 6.02344 9.5625 6.02344 5.07031 10.0078C4.79688 10.2422 4.79688 10.6719 5.03125 10.9062L6.39844 12.2344C6.63281 12.4688 6.98438 12.4688 7.25781 12.2734C10.5391 9.42188 15.4219 9.42188 18.7031 12.2734C18.9766 12.4688 19.3281 12.4688 19.5625 12.2344L20.9297 10.9062C21.1641 10.6719 21.1641 10.2422 20.8906 10.0078Z" fill="black"/>
</svg>
